<svg xmlns="http://www.w3.org/2000/svg" width="335.609" height="229.227" viewBox="0 0 335.609 229.227"><defs><style>.a{fill:#3f3d56;}.b{fill:#f2f2f2;}.c{fill:#c1278e;}.d{opacity:0.1;}.e{fill:#fff;}.f{fill:#ff6584;}.g{fill:#2f2e41;}.h{fill:#a0616a;}</style></defs><path class="a" d="M596.552,190.97c-1.5,12.843-4.614,23.154-8.889,31.378-5.689,10.957-15.42,15.372-24.113,19.991a54.975,54.975,0,0,1-7.811,3.4c-15.817,5.49-33.521,4.033-47.428,1.135a186.968,186.968,0,0,0-29.608-3.743q-4.258-.192-8.525-.191c-4.386.006-83.363,1.5-102.592-37.425-4.747-9.6-8-21.334-9.171-35.633-3.308-40.426,14.874-66.976,38.326-84.33C441.108,52.72,501.92,54.1,545.631,87.789,574.747,110.232,602.009,144.2,596.552,190.97Z" transform="translate(-261.645 -61.705)"/><path class="b" d="M719.47,297.342c-12.308-9.2-31.585-17.9-52.888-23.874-19.4-5.437-38.316-8.062-53.276-7.391l-.078-1.74c15.138-.678,34.253,1.969,53.824,7.454,21.5,6.027,40.988,14.831,53.461,24.156Z" transform="translate(-441.519 -204.453)"/><path class="c" d="M691.052,261.523a57.954,57.954,0,0,1-5.016,23.661q-.415.935-.866,1.853a58.173,58.173,0,0,1-110.448-25.514q0-2.019.138-4.007.065-1.011.169-2.01a58.168,58.168,0,0,1,116.023,6.017Z" transform="translate(-414.379 -161.546)"/><path class="d" d="M686.365,409.706q-.415.935-.866,1.853-2.549.277-5.367.4c-1.555.07-3.156.1-4.791.1-14.283,0-31.474-2.637-49.034-7.558-19.57-5.486-37.276-13.158-49.856-21.606q-.643-.431-1.263-.864.065-1.011.169-2.01,1,.713,2.064,1.428c12.432,8.347,29.96,15.938,49.356,21.375,17.408,4.88,34.436,7.493,48.555,7.493q2.422,0,4.721-.1Q683.4,410.07,686.365,409.706Z" transform="translate(-414.708 -286.068)"/><path class="b" d="M637.037,329.306c-14.283,0-31.474-2.636-49.034-7.558-19.57-5.485-37.276-13.158-49.857-21.606-12.843-8.624-18.865-17.121-16.958-23.927s11.469-10.936,26.923-11.628l.078,1.74c-7.217.323-13.1,1.4-17.481,3.188s-7.011,4.2-7.843,7.17.168,6.4,2.974,10.2,7.28,7.782,13.278,11.809c12.431,8.347,29.959,15.938,49.356,21.375,17.408,4.879,34.435,7.494,48.555,7.494q2.42,0,4.72-.1c7.217-.323,13.1-1.4,17.481-3.188s7.011-4.2,7.843-7.17c1.495-5.333-3.023-12.263-12.72-19.513L655.4,296.2c4.99,3.731,8.684,7.408,10.979,10.93,2.461,3.776,3.259,7.291,2.375,10.448-1.908,6.806-11.469,10.935-26.923,11.628C640.271,329.272,638.672,329.306,637.037,329.306Z" transform="translate(-376.402 -204.701)"/><circle class="b" cx="0.667" cy="0.667" r="0.667" transform="translate(219.38 29.989)"/><circle class="b" cx="0.667" cy="0.667" r="0.667" transform="translate(130.957 58.431)"/><circle class="b" cx="0.667" cy="0.667" r="0.667" transform="translate(128.513 103.309)"/><circle class="b" cx="0.444" cy="0.444" r="0.444" transform="translate(264.703 34.21)"/><circle class="b" cx="0.444" cy="0.444" r="0.444" transform="translate(318.246 96.866)"/><circle class="b" cx="0.444" cy="0.444" r="0.444" transform="translate(293.807 76.427)"/><circle class="b" cx="0.444" cy="0.444" r="0.444" transform="translate(171.392 44.208)"/><circle class="b" cx="0.444" cy="0.444" r="0.444" transform="translate(292.252 90.868)"/><circle class="b" cx="0.444" cy="0.444" r="0.444" transform="translate(134.067 135.524)"/><circle class="b" cx="0.444" cy="0.444" r="0.444" transform="translate(160.505 153.742)"/><path class="b" d="M671.776,39.362h-.613v-.613h-.329v.613h-.613v.329h.613V40.3h.329v-.613h.613Z" transform="translate(-472.391 -27.312)"/><path class="b" d="M896.076,551.186h-.613v-.613h-.329v.613h-.613v.329h.613v.613h.329v-.613h.613Z" transform="translate(-630.484 -388.06)"/><path class="b" d="M1035.326,520.326h-.614v-.613h-.331v.613h-.611v.329h.611v.613h.331v-.613h.614Z" transform="translate(-728.631 -366.309)"/><circle class="a" cx="4.888" cy="4.888" r="4.888" transform="translate(214.493 49.544)"/><circle class="a" cx="4.888" cy="4.888" r="4.888" transform="translate(176.946 85.313)"/><circle class="a" cx="4.888" cy="4.888" r="4.888" transform="translate(230.933 134.413)"/><circle class="a" cx="4.888" cy="4.888" r="4.888" transform="translate(214.493 92.867)"/><circle class="a" cx="4.888" cy="4.888" r="4.888" transform="translate(179.39 119.75)"/><circle class="a" cx="4.888" cy="4.888" r="4.888" transform="translate(240.709 66.651)"/><circle class="a" cx="4.888" cy="4.888" r="4.888" transform="translate(256.927 99.754)"/><circle class="e" cx="6.443" cy="6.443" r="6.443" transform="translate(212.938 69.984)"/><path class="f" d="M752.981,289.015a9.109,9.109,0,0,0-9.109,9.109c0,5.031,9.109,21.551,9.109,21.551s9.109-16.52,9.109-21.55A9.109,9.109,0,0,0,752.981,289.015Zm0,13.552a4.221,4.221,0,1,1,4.221-4.221,4.221,4.221,0,0,1-4.221,4.221Z" transform="translate(-533.6 -221.92)"/><circle class="e" cx="6.443" cy="6.443" r="6.443" transform="translate(177.835 97.532)"/><path class="f" d="M634.057,382.348a9.109,9.109,0,0,0-9.109,9.109c0,5.031,9.109,21.55,9.109,21.55s9.109-16.52,9.109-21.55a9.109,9.109,0,0,0-9.109-9.109Zm0,13.552a4.221,4.221,0,1,1,4.221-4.221,4.221,4.221,0,0,1-4.221,4.221Z" transform="translate(-449.779 -287.703)"/><circle class="e" cx="6.443" cy="6.443" r="6.443" transform="translate(255.372 77.537)"/><path class="f" d="M896.743,314.606a9.109,9.109,0,0,0-9.109,9.109c0,5.031,9.109,21.55,9.109,21.55s9.109-16.52,9.109-21.55A9.109,9.109,0,0,0,896.743,314.606Zm0,13.552a4.221,4.221,0,1,1,4.221-4.221,4.221,4.221,0,0,1-4.221,4.221Z" transform="translate(-634.928 -239.957)"/><circle class="e" cx="6.443" cy="6.443" r="6.443" transform="translate(212.938 26.66)"/><path class="f" d="M752.981,142.242a9.109,9.109,0,0,0-9.109,9.109c0,5.031,9.109,21.551,9.109,21.551s9.109-16.52,9.109-21.55A9.109,9.109,0,0,0,752.981,142.242Zm0,13.552a4.221,4.221,0,1,1,4.221-4.221,4.221,4.221,0,0,1-4.221,4.221Z" transform="translate(-533.6 -118.47)"/><circle class="e" cx="6.443" cy="6.443" r="6.443" transform="translate(229.378 112.196)"/><path class="f" d="M808.679,432.025a9.109,9.109,0,0,0-9.109,9.109c0,5.031,9.109,21.551,9.109,21.551s9.109-16.52,9.109-21.551a9.109,9.109,0,0,0-9.109-9.109Zm0,13.552a4.221,4.221,0,1,1,4.221-4.221,4.221,4.221,0,0,1-4.221,4.221Z" transform="translate(-572.858 -322.717)"/><circle class="e" cx="6.443" cy="6.443" r="6.443" transform="translate(175.391 62.652)"/><path class="f" d="M625.777,264.177a9.109,9.109,0,0,0-9.109,9.109c0,5.031,9.109,21.55,9.109,21.55s9.109-16.52,9.109-21.55A9.109,9.109,0,0,0,625.777,264.177Zm0,13.552A4.221,4.221,0,1,1,630,273.508a4.221,4.221,0,0,1-4.221,4.221Z" transform="translate(-443.943 -204.413)"/><circle class="e" cx="6.443" cy="6.443" r="6.443" transform="translate(239.154 44.656)"/><path class="f" d="M841.8,203.209a9.109,9.109,0,0,0-9.109,9.109c0,5.031,9.109,21.55,9.109,21.55s9.109-16.52,9.109-21.55a9.109,9.109,0,0,0-9.109-9.109Zm0,13.552a4.221,4.221,0,1,1,4.221-4.221,4.221,4.221,0,0,1-4.221,4.221Z" transform="translate(-596.201 -161.441)"/><path class="a" d="M154,794.453c0,3.158-27.422,5.719-61.248,5.719S31.5,797.612,31.5,794.453s25.212-10.246,59.038-10.246S154,791.295,154,794.453Z" transform="translate(-31.5 -570.945)"/><rect class="g" width="24.039" height="19.895" transform="translate(40.553 37.924)"/><path class="h" d="M262.8,692.495l2.075,7.954-5.534.865-2.594-8.3Z" transform="translate(-180.966 -488.091)"/><path class="h" d="M130.231,688.394v8.473h-5.879l.865-8.473Z" transform="translate(-87.647 -485.2)"/><path class="g" d="M291.62,776.786s4.15-1.9,6.571,0,3.631,6.225,3.631,6.225,6.225,7.954-1.038,7.609-7.609-1.21-7.609-2.421.346-2.594-.865-3.113-1.729-2.94-1.383-3.631A30.469,30.469,0,0,0,291.62,776.786Z" transform="translate(-214.279 -565.119)"/><path class="g" d="M151.371,769.62s-5.706-3.65-6.917-.788-2.94,6.494-2.94,6.494-4.842,7.609,1.21,7.781,7.09-.692,7.609-2.248,0-2.767,1.038-2.767,1.556-2.248,1.038-3.286A29.857,29.857,0,0,1,151.371,769.62Z" transform="translate(-107.749 -559.336)"/><path class="h" d="M182.889,228.225s-1.383,7.781,2.248,8.3,7.263,2.075,7.436,3.113-14.18,12.1-14.18,12.1l-8.819-2.767s-8.819-2.248-8.473-3.977,1.038-4.15,1.038-4.15,10.029-2.075,10.2-5.188a59.363,59.363,0,0,1,1.383-8.127Z" transform="translate(-122.84 -178.586)"/><path class="d" d="M182.889,228.225s-1.383,7.781,2.248,8.3,7.263,2.075,7.436,3.113-14.18,12.1-14.18,12.1l-8.819-2.767s-8.819-2.248-8.473-3.977,1.038-4.15,1.038-4.15,10.029-2.075,10.2-5.188a59.363,59.363,0,0,1,1.383-8.127Z" transform="translate(-122.84 -178.586)"/><path class="g" d="M137.654,393.841s6.263,5.981,18.695,5.412,11.394,3.753,11.394,3.753l-.519,6.917s6.571,28.878,5.706,44.1c0,0,.346,7.263,2.767,11.24s8.992,33.374,7.954,35.622-8.646,1.383-8.646,1.383-7.09-26.8-10.548-32.855-3.8-9.511-3.8-9.511l-11.759-34.238-1.556,14.871s.173,11.759.173,12.8-.173,9.338-.865,11.067-3.286,29.4-1.729,34.066-8.127,2.075-8.127,2.075-2.94-30.088-2.075-35.968-1.383-16.428-1.383-16.428-6.571-32.163-2.94-37.351c0,0,2.421-17.638,3.631-17.465Z" transform="translate(-100.431 -295.438)"/><circle class="h" cx="9.511" cy="9.511" r="9.511" transform="translate(45.61 34.336)"/><path class="c" d="M135.836,307.643c.176.529,2.239-.56,4.221-1.755,1.906-1.148,3.733-2.395,3.733-2.395,2.075,6.571,15.217,3.977,15.217,3.977s.033.047.093.13a24.042,24.042,0,0,0,4.576,4.712c2.594,1.9,8.646-2.594,8.646-2.594s9.411-22.537,10.614-34.475c.265-2.627.133-4.742-.584-5.988-3.977-6.917-9.573-6.045-9.573-6.045-.929,2.43-8.411,6.045-8.411,6.045l-7.436,1.383c-7.436,1.383-9.684-6.4-9.684-6.4-2.075-.346-5.879,3.458-5.879,3.458-3.631,1.038-5.533,13.142-5.533,13.142s.361.45.925,1.167c.318.4.7.891,1.119,1.432.145.187.294.38.446.578a53.7,53.7,0,0,1,4.946,7.2c1.038,2.421-1.038,6.052-3.458,5.879S135.49,306.606,135.836,307.643Z" transform="translate(-105.01 -203.706)"/><path class="h" d="M189.037,432.252s-8.127,10.2-11.759,6.571,10.548-12.1,10.548-12.1Z" transform="translate(-133.83 -318.977)"/><path class="h" d="M135.2,434.92s7.09,10.721,3.113,11.067-8.819-7.09-8.819-7.09Z" transform="translate(-100.566 -324.758)"/><path class="g" d="M142.852,188.366a42.061,42.061,0,0,0,2.722-6.033c.7-2.555.427-5.257.344-7.9a24.821,24.821,0,0,1,.593-6.975,11.992,11.992,0,0,1,3.448-6c4.455-3.977,12.607-4.262,18.046-2.607,2.144.653,4.429,1.9,4.96,4.073.08.329.116.667.206.994.445,1.621,2.1,2.647,2.7,4.218.774,2.032-.419,4.242-.575,6.411-.182,2.532,1.063,4.925,2.29,7.147A8.267,8.267,0,0,1,179,185.922a5.352,5.352,0,0,1-.732,2.335,8.9,8.9,0,0,1-7.48,4.288,4.693,4.693,0,0,1-2.8-.661,4.346,4.346,0,0,1-1.44-4.342,21.063,21.063,0,0,1,1.714-4.507c.194-.455.369-.918.53-1.385a9.512,9.512,0,1,0-6.274,1.064,12.885,12.885,0,0,1-.624,7.164,27.054,27.054,0,0,1-3.008,5.245,7.242,7.242,0,0,1-1.917,2.145,6.8,6.8,0,0,1-1.633.7,16.922,16.922,0,0,1-7.427,1.046,7.108,7.108,0,0,1-5.823-4.228C141.341,192.7,141.94,190.379,142.852,188.366Z" transform="translate(-109.208 -129.5)"/><ellipse class="g" cx="10.375" cy="5.879" rx="10.375" ry="5.879" transform="translate(44.054 32.088)"/><path class="d" d="M214.752,322.532a24.042,24.042,0,0,0,4.576,4.712c2.594,1.9,8.646-2.594,8.646-2.594s9.41-22.537,10.614-34.475a53.409,53.409,0,0,0-2.314-5.815l1.989,8.041s-8.905,7.176-10.808,10.116-.173,12.8,0,14.352-3.458,2.075-5.188,1.9-2.075,1.383-3.631,1.383C217.883,320.155,216.246,321.324,214.752,322.532Z" transform="translate(-160.661 -218.639)"/><path class="c" d="M232.3,284.36h2.594s6.4,12.969,5.706,27.667-7.781,20.578-15.909,22.48-11.759,3.113-12.8,1.9-1.556-11.24-1.556-11.24,5.361-5.015,6.917-5.015,1.9-1.556,3.631-1.383,5.361-.346,5.188-1.9-1.9-11.413,0-14.352S232.3,284.36,232.3,284.36Z" transform="translate(-157.548 -218.639)"/><path class="d" d="M139.068,325.431c.318.4.7.891,1.119,1.432l-1.006-2.08S139.139,325.017,139.068,325.431Z" transform="translate(-107.317 -247.129)"/><path class="d" d="M135.836,355.2c.176.529,2.239-.56,4.221-1.755-.021-.1-.043-.211-.071-.32-.519-2.075,3.113-7.09,3.113-7.09l2.421-6.571L145,330.641l-6.675.929a53.7,53.7,0,0,1,4.946,7.2c1.038,2.421-1.038,6.052-3.458,5.879S135.49,354.158,135.836,355.2Z" transform="translate(-105.01 -251.259)"/><path class="c" d="M125.507,311.308l-3.458,3.458s-2.421,14.007-2.421,14.871-4.15,6.4-3.113,10.2,1.729,8.819.865,9.857-2.075,3.977,0,5.361,4.669-7.954,10.894-5.533c0,0-3.8-6.052-3.631-6.571a5.79,5.79,0,0,0,.519-3.977c-.519-2.075,3.113-7.09,3.113-7.09l2.421-6.571-.519-8.819Z" transform="translate(-91.223 -237.632)"/></svg>